# xmcd
# 
# Track frame offsets:
#     150
#     18904
#     40157
# 
# Disc length: 783
# 
# Revision: 0
# Processed by: cddbd v1.5.2PL0 Copyright (c) Steve Scherf et al.
# Submitted via: fre:ac v1.0.31
# 
DISCID=18030d03
DTITLE=麻倉 もも - 365×LOVE
DYEAR=2019
DGENRE=JPop
TTITLE0=365×LOVE
TTITLE1=さよなら観覧者
TTITLE2=365×LOVE [Instrumental]
EXTD=
EXTT0=
EXTT1=
EXTT2=
PLAYORDER=
